<?xml version="1.0" standalone="no"?><svg xmlns="http://www.w3.org/2000/svg" viewBox="0 0 1440 320"><path fill="#e2edff" fill-opacity="1" d="M0,192L40,202.7C80,213,160,235,240,224C320,213,400,171,480,144C560,117,640,107,720,106.7C800,107,880,117,960,128C1040,139,1120,149,1200,138.7C1280,128,1360,96,1400,80L1440,64L1440,320L1400,320C1360,320,1280,320,1200,320C1120,320,1040,320,960,320C880,320,800,320,720,320C640,320,560,320,480,320C400,320,320,320,240,320C160,320,80,320,40,320L0,320Z"></path></svg>