<?xml version="1.0" standalone="no"?><svg xmlns="http://www.w3.org/2000/svg" viewBox="0 0 1440 320"><path fill="#0d6efd" fill-opacity="1" d="M0,192L21.8,202.7C43.6,213,87,235,131,208C174.5,181,218,107,262,117.3C305.5,128,349,224,393,240C436.4,256,480,192,524,186.7C567.3,181,611,235,655,234.7C698.2,235,742,181,785,165.3C829.1,149,873,171,916,170.7C960,171,1004,149,1047,128C1090.9,107,1135,85,1178,90.7C1221.8,96,1265,128,1309,122.7C1352.7,117,1396,75,1418,53.3L1440,32L1440,320L1418.2,320C1396.4,320,1353,320,1309,320C1265.5,320,1222,320,1178,320C1134.5,320,1091,320,1047,320C1003.6,320,960,320,916,320C872.7,320,829,320,785,320C741.8,320,698,320,655,320C610.9,320,567,320,524,320C480,320,436,320,393,320C349.1,320,305,320,262,320C218.2,320,175,320,131,320C87.3,320,44,320,22,320L0,320Z"></path></svg>